<svg width="87" height="26" viewBox="0 0 87 26" fill="none" xmlns="http://www.w3.org/2000/svg">
<g clip-path="url(#clip0_5337_6481)">
<path d="M39.998 17.8207C39.9477 17.8207 39.9011 17.8449 39.8732 17.8859C39.4541 18.4933 38.2973 19.6448 36.3378 19.6448C35.168 19.6448 34.192 19.3765 33.229 18.8399C32.266 18.3033 31.5042 17.5356 30.9435 16.5406C30.3828 15.5456 30.1016 14.3848 30.1016 13.0563C30.1016 11.7278 30.3866 10.6192 30.9547 9.63165C31.5228 8.64411 32.2883 7.88577 33.2532 7.3566C34.2162 6.82743 35.2593 6.56285 36.3806 6.56285C38.0068 6.56285 38.9847 7.18145 39.7521 8.09818C39.7819 8.13358 39.8266 8.15408 39.8713 8.15408C39.957 8.15408 40.0278 8.08327 40.0278 7.99756V3.74745C40.0278 3.60585 40.1433 3.49219 40.283 3.49219H43.727C43.8686 3.49219 43.9822 3.60771 43.9822 3.74745V19.0784C43.9822 19.22 43.8668 19.3337 43.727 19.3337H40.4003C40.2587 19.3337 40.1451 19.2181 40.1451 19.0784V17.966C40.1451 17.884 40.0781 17.817 39.9961 17.817L39.998 17.8207ZM37.2338 16.399C38.0869 16.399 38.8059 16.0916 39.3889 15.4748C39.9738 14.8581 40.2662 14.0606 40.2662 13.0805C40.2662 12.1005 39.9738 11.2844 39.3889 10.6751C38.804 10.0677 38.0869 9.76207 37.2338 9.76207C36.3807 9.76207 35.6151 10.0658 35.0302 10.6751C34.4453 11.2844 34.1529 12.0856 34.1529 13.0805C34.1529 14.0755 34.4453 14.8376 35.0302 15.4618C35.6151 16.086 36.349 16.3972 37.2338 16.3972V16.399Z" fill="black"/>
<path d="M46.2825 3.49219H49.8682C50.0097 3.49219 50.1234 3.60771 50.1234 3.74745V5.61817C50.1234 5.75978 50.0079 5.87344 49.8682 5.87344H46.2825C46.141 5.87344 46.0273 5.75792 46.0273 5.61817V3.74745C46.0273 3.60585 46.1428 3.49219 46.2825 3.49219ZM46.3533 6.96531H49.8216C49.9632 6.96531 50.0768 7.08084 50.0768 7.22058V19.0784C50.0768 19.22 49.9613 19.3337 49.8216 19.3337H46.3533C46.2117 19.3337 46.0981 19.2181 46.0981 19.0784V7.22058C46.0981 7.07897 46.2136 6.96531 46.3533 6.96531Z" fill="black"/>
<path d="M51.5848 6.96875H55.2636C55.3698 6.96875 55.4648 7.03396 55.5039 7.13458L58.6145 15.3441C58.6648 15.4764 58.8511 15.4764 58.9014 15.3441L62.0121 7.13458C62.0493 7.03583 62.1443 6.96875 62.2524 6.96875H65.8361C66.0187 6.96875 66.1435 7.15508 66.0727 7.32463L61.0994 19.1825C61.0602 19.2775 60.9671 19.339 60.8628 19.339H56.5358C56.4334 19.339 56.3402 19.2775 56.2992 19.1825L51.3482 7.32463C51.2775 7.15508 51.4023 6.97061 51.5848 6.97061V6.96875Z" fill="black"/>
<path d="M66.8661 6.96875H70.5448C70.651 6.96875 70.746 7.03396 70.7851 7.13458L73.8958 15.3441C73.9461 15.4764 74.1324 15.4764 74.1826 15.3441L77.2933 7.13458C77.3306 7.03583 77.4256 6.96875 77.5336 6.96875H81.1174C81.2999 6.96875 81.4247 7.15508 81.354 7.32463L76.3806 19.1825C76.3415 19.2775 76.2484 19.339 76.144 19.339H71.817C71.7146 19.339 71.6215 19.2775 71.5805 19.1825L66.6295 7.32463C66.5587 7.15508 66.6835 6.97061 66.8661 6.97061V6.96875Z" fill="black"/>
<path d="M82.8372 3.49219H86.4229C86.5644 3.49219 86.6781 3.60771 86.6781 3.74745V5.61817C86.6781 5.75978 86.5626 5.87344 86.4229 5.87344H82.8372C82.6957 5.87344 82.582 5.75792 82.582 5.61817V3.74745C82.582 3.60585 82.6975 3.49219 82.8372 3.49219ZM82.908 6.96531H86.3763C86.5179 6.96531 86.6315 7.08084 86.6315 7.22058V19.0784C86.6315 19.22 86.516 19.3337 86.3763 19.3337H82.908C82.7664 19.3337 82.6528 19.2181 82.6528 19.0784V7.22058C82.6528 7.07897 82.7683 6.96531 82.908 6.96531Z" fill="black"/>
<path d="M19.5607 0H6.46235C2.90091 0 0.015625 2.8862 0.015625 6.44876V19.5512C0.015625 23.1119 2.90091 26 6.46235 26H19.5607C23.1203 26 26.0074 23.1138 26.0074 19.5512V6.44876C26.0056 2.8862 23.1203 0 19.5607 0ZM14.701 6.64254H19.095C19.2478 6.64254 19.3726 6.76738 19.3726 6.92017V11.3156L19.3782 11.3212C19.3782 11.5653 19.0745 11.6901 18.8994 11.5168L14.5054 7.1214C14.3266 6.94253 14.4514 6.64254 14.701 6.64254ZM11.3221 19.3593H6.92802C6.77528 19.3593 6.65048 19.2345 6.65048 19.0817V14.6863L6.64489 14.6807C6.64489 14.4366 6.94851 14.3117 7.1236 14.485L11.5177 18.8805C11.6965 19.0593 11.5717 19.3593 11.3221 19.3593ZM20.4417 16.421L16.4333 20.4307C16.0924 20.7717 15.5373 20.7717 15.1964 20.4307L5.58503 10.8163C5.24416 10.4753 5.24416 9.92002 5.58503 9.57905L9.59351 5.5693C9.93438 5.22832 10.4876 5.22832 10.8303 5.5693L20.4417 15.1837C20.7826 15.5247 20.7826 16.0781 20.4417 16.421Z" fill="black"/>
</g>
<defs>
<clipPath id="clip0_5337_6481">
<rect width="86.694" height="26" fill="black"/>
</clipPath>
</defs>
</svg>
